HIERARCHY
ROOT Root
{
  OFFSET 0.0 0.0 0.0
  CHANNELS 6 Xposition Yposition Zposition Zrotation Yrotation Xrotation
  JOINT Hips
  {
    OFFSET 0.0 100.0 0.0
    CHANNELS 6 Xposition Yposition Zposition Zrotation Yrotation Xrotation
    JOINT Spine1
    {
      OFFSET 5.003913 -0.037094 -0.013727
      CHANNELS 3 Zrotation Yrotation Xrotation
      JOINT Spine2
      {
        OFFSET 7.125363 -1e-06 0.0
        CHANNELS 3 Zrotation Yrotation Xrotation
        JOINT Chest
        {
          OFFSET 7.594027 1e-06 0.0
          CHANNELS 3 Zrotation Yrotation Xrotation
          JOINT Neck1
          {
            OFFSET 26.313086 -0.460272 -0.181672
            CHANNELS 3 Zrotation Yrotation Xrotation
            JOINT Neck2
            {
              OFFSET 8.045911 0.0 0.0
              CHANNELS 3 Zrotation Yrotation Xrotation
              JOINT Head
              {
                OFFSET 6.432774 0.0 0.0
                CHANNELS 3 Zrotation Yrotation Xrotation
                JOINT HeadEnd
                {
                  OFFSET 16.169773 0.06451 0.00362
                  CHANNELS 3 Zrotation Yrotation Xrotation
                }
                JOINT Jaw
                {
                  OFFSET 0.108741 3.12938 0.002639
                  CHANNELS 3 Zrotation Yrotation Xrotation
                }
                JOINT LeftEye
                {
                  OFFSET 4.45173 8.166359 3.206392
                  CHANNELS 3 Zrotation Yrotation Xrotation
                }
                JOINT RightEye
                {
                  OFFSET 4.436895 8.135758 -3.222429
                  CHANNELS 3 Zrotation Yrotation Xrotation
                }
              }
            }
          }
          JOINT LeftShoulder
          {
            OFFSET 23.218927 5.195579 1.621656
            CHANNELS 3 Zrotation Yrotation Xrotation
            JOINT LeftArm
            {
              OFFSET 15.902118 2e-06 -2e-06
              CHANNELS 3 Zrotation Yrotation Xrotation
              JOINT LeftForeArm
              {
                OFFSET 28.739307 0.0 -1e-06
                CHANNELS 3 Zrotation Yrotation Xrotation
                JOINT LeftHand
                {
                  OFFSET 27.093981 -4e-06 0.0
                  CHANNELS 3 Zrotation Yrotation Xrotation
                  JOINT LeftHandThumb1
                  {
                    OFFSET 2.276781 3.380274 0.83384
                    CHANNELS 3 Zrotation Yrotation Xrotation
                    JOINT LeftHandThumb2
                    {
                      OFFSET 4.705309 -1e-06 -1e-06
                      CHANNELS 3 Zrotation Yrotation Xrotation
                      JOINT LeftHandThumb3
                      {
                        OFFSET 2.798515 0.0 3e-06
                        CHANNELS 3 Zrotation Yrotation Xrotation
                        JOINT LeftHandThumbEnd
                        {
                          OFFSET 3.180793 4e-06 -4e-06
                          CHANNELS 3 Zrotation Yrotation Xrotation
                        }
                      }
                    }
                  }
                  JOINT LeftHandIndex1
                  {
                    OFFSET 3.247786 2.352677 0.137192
                    CHANNELS 3 Zrotation Yrotation Xrotation
                    JOINT LeftHandIndex2
                    {
                      OFFSET 6.367095 1e-06 0.0
                      CHANNELS 3 Zrotation Yrotation Xrotation
                      JOINT LeftHandIndex3
                      {
                        OFFSET 3.662364 0.0 0.0
                        CHANNELS 3 Zrotation Yrotation Xrotation
                        JOINT LeftHandIndex4
                        {
                          OFFSET 2.329242 4e-06 -4e-06
                          CHANNELS 3 Zrotation Yrotation Xrotation
                          JOINT LeftHandIndexEnd
                          {
                            OFFSET 2.767823 1e-06 0.0
                            CHANNELS 3 Zrotation Yrotation Xrotation
                          }
                        }
                      }
                    }
                  }
                  JOINT LeftHandMiddle1
                  {
                    OFFSET 3.163612 0.945023 -0.406112
                    CHANNELS 3 Zrotation Yrotation Xrotation
                    JOINT LeftHandMiddle2
                    {
                      OFFSET 6.276789 3e-06 0.0
                      CHANNELS 3 Zrotation Yrotation Xrotation
                      JOINT LeftHandMiddle3
                      {
                        OFFSET 4.35652 -1e-06 4e-06
                        CHANNELS 3 Zrotation Yrotation Xrotation
                        JOINT LeftHandMiddle4
                        {
                          OFFSET 2.996877 0.0 8e-06
                          CHANNELS 3 Zrotation Yrotation Xrotation
                          JOINT LeftHandMiddleEnd
                          {
                            OFFSET 2.323256 3e-06 -4e-06
                            CHANNELS 3 Zrotation Yrotation Xrotation
                          }
                        }
                      }
                    }
                  }
                  JOINT LeftHandRing1
                  {
                    OFFSET 2.882606 -0.309162 0.107445
                    CHANNELS 3 Zrotation Yrotation Xrotation
                    JOINT LeftHandRing2
                    {
                      OFFSET 6.033198 0.0 4e-06
                      CHANNELS 3 Zrotation Yrotation Xrotation
                      JOINT LeftHandRing3
                      {
                        OFFSET 4.350578 3e-06 0.0
                        CHANNELS 3 Zrotation Yrotation Xrotation
                        JOINT LeftHandRing4
                        {
                          OFFSET 2.651321 2e-06 -7e-06
                          CHANNELS 3 Zrotation Yrotation Xrotation
                          JOINT LeftHandRingEnd
                          {
                            OFFSET 1.937663 1e-06 -4e-06
                            CHANNELS 3 Zrotation Yrotation Xrotation
                          }
                        }
                      }
                    }
                  }
                  JOINT LeftHandPinky1
                  {
                    OFFSET 2.865315 -1.525436 0.575687
                    CHANNELS 3 Zrotation Yrotation Xrotation
                    JOINT LeftHandPinky2
                    {
                      OFFSET 5.54936 1e-06 -8e-06
                      CHANNELS 3 Zrotation Yrotation Xrotation
                      JOINT LeftHandPinky3
                      {
                        OFFSET 3.070974 0.0 -4e-06
                        CHANNELS 3 Zrotation Yrotation Xrotation
                        JOINT LeftHandPinky4
                        {
                          OFFSET 1.549672 1e-06 0.0
                          CHANNELS 3 Zrotation Yrotation Xrotation
                          JOINT LeftHandPinkyEnd
                          {
                            OFFSET 1.952123 0.0 0.0
                            CHANNELS 3 Zrotation Yrotation Xrotation
                          }
                        }
                      }
                    }
                  }
                }
              }
            }
          }
          JOINT RightShoulder
          {
            OFFSET 23.161716 5.296122 -1.380114
            CHANNELS 3 Zrotation Yrotation Xrotation
            JOINT RightArm
            {
              OFFSET -16.027195 -2e-06 1.1e-05
              CHANNELS 3 Zrotation Yrotation Xrotation
              JOINT RightForeArm
              {
                OFFSET -28.736639 4e-06 2e-06
                CHANNELS 3 Zrotation Yrotation Xrotation
                JOINT RightHand
                {
                  OFFSET -27.133619 6e-06 0.0
                  CHANNELS 3 Zrotation Yrotation Xrotation
                  JOINT RightHandThumb1
                  {
                    OFFSET -2.274328 -3.351035 -0.83067
                    CHANNELS 3 Zrotation Yrotation Xrotation
                    JOINT RightHandThumb2
                    {
                      OFFSET -4.703594 -3e-06 2e-06
                      CHANNELS 3 Zrotation Yrotation Xrotation
                      JOINT RightHandThumb3
                      {
                        OFFSET -2.794935 -4e-06 -3e-06
                        CHANNELS 3 Zrotation Yrotation Xrotation
                        JOINT RightHandThumbEnd
                        {
                          OFFSET -3.183852 4e-06 1e-06
                          CHANNELS 3 Zrotation Yrotation Xrotation
                        }
                      }
                    }
                  }
                  JOINT RightHandIndex1
                  {
                    OFFSET -3.253496 -2.33755 -0.127667
                    CHANNELS 3 Zrotation Yrotation Xrotation
                    JOINT RightHandIndex2
                    {
                      OFFSET -6.344434 0.0 0.0
                      CHANNELS 3 Zrotation Yrotation Xrotation
                      JOINT RightHandIndex3
                      {
                        OFFSET -3.654871 0.0 -8e-06
                        CHANNELS 3 Zrotation Yrotation Xrotation
                        JOINT RightHandIndex4
                        {
                          OFFSET -2.327586 -1e-06 0.0
                          CHANNELS 3 Zrotation Yrotation Xrotation
                          JOINT RightHandIndexEnd
                          {
                            OFFSET -2.770001 3e-06 8e-06
                            CHANNELS 3 Zrotation Yrotation Xrotation
                          }
                        }
                      }
                    }
                  }
                  JOINT RightHandMiddle1
                  {
                    OFFSET -3.168223 -0.944764 0.411762
                    CHANNELS 3 Zrotation Yrotation Xrotation
                    JOINT RightHandMiddle2
                    {
                      OFFSET -6.266691 -1e-06 -4e-06
                      CHANNELS 3 Zrotation Yrotation Xrotation
                      JOINT RightHandMiddle3
                      {
                        OFFSET -4.348901 0.0 0.0
                        CHANNELS 3 Zrotation Yrotation Xrotation
                        JOINT RightHandMiddle4
                        {
                          OFFSET -3.00024 2e-06 -4e-06
                          CHANNELS 3 Zrotation Yrotation Xrotation
                          JOINT RightHandMiddleEnd
                          {
                            OFFSET -2.321477 -4e-06 -4e-06
                            CHANNELS 3 Zrotation Yrotation Xrotation
                          }
                        }
                      }
                    }
                  }
                  JOINT RightHandRing1
                  {
                    OFFSET -2.885654 0.293261 -0.119232
                    CHANNELS 3 Zrotation Yrotation Xrotation
                    JOINT RightHandRing2
                    {
                      OFFSET -6.032835 -1e-06 -4e-06
                      CHANNELS 3 Zrotation Yrotation Xrotation
                      JOINT RightHandRing3
                      {
                        OFFSET -4.33881 0.0 -4e-06
                        CHANNELS 3 Zrotation Yrotation Xrotation
                        JOINT RightHandRing4
                        {
                          OFFSET -2.654903 -4e-06 -4e-06
                          CHANNELS 3 Zrotation Yrotation Xrotation
                          JOINT RightHandRingEnd
                          {
                            OFFSET -1.935122 0.0 4e-06
                            CHANNELS 3 Zrotation Yrotation Xrotation
                          }
                        }
                      }
                    }
                  }
                  JOINT RightHandPinky1
                  {
                    OFFSET -2.866241 1.503904 -0.60527
                    CHANNELS 3 Zrotation Yrotation Xrotation
                    JOINT RightHandPinky2
                    {
                      OFFSET -5.553177 -2e-06 0.0
                      CHANNELS 3 Zrotation Yrotation Xrotation
                      JOINT RightHandPinky3
                      {
                        OFFSET -3.062664 -1e-06 -4e-06
                        CHANNELS 3 Zrotation Yrotation Xrotation
                        JOINT RightHandPinky4
                        {
                          OFFSET -1.546529 2e-06 4e-06
                          CHANNELS 3 Zrotation Yrotation Xrotation
                          JOINT RightHandPinkyEnd
                          {
                            OFFSET -1.952341 0.0 -4e-06
                            CHANNELS 3 Zrotation Yrotation Xrotation
                          }
                        }
                      }
                    }
                  }
                }
              }
            }
          }
        }
      }
    }
    JOINT LeftLeg
    {
      OFFSET -8.443107 2.567604 10.043214
      CHANNELS 3 Zrotation Yrotation Xrotation
      JOINT LeftShin
      {
        OFFSET 43.229198 1e-06 -1e-06
        CHANNELS 3 Zrotation Yrotation Xrotation
        JOINT LeftFoot
        {
          OFFSET 42.298611 1e-06 1e-06
          CHANNELS 3 Zrotation Yrotation Xrotation
          JOINT LeftToeBase
          {
            OFFSET 14.165858 1e-06 0.0
            CHANNELS 3 Zrotation Yrotation Xrotation
            JOINT LeftToeEnd
            {
              OFFSET 6.7141 -0.234461 0.0
              CHANNELS 3 Zrotation Yrotation Xrotation
            }
          }
        }
      }
    }
    JOINT RightLeg
    {
      OFFSET -8.303923 2.592729 -10.047278
      CHANNELS 3 Zrotation Yrotation Xrotation
      JOINT RightShin
      {
        OFFSET -43.369682 0.0 1e-06
        CHANNELS 3 Zrotation Yrotation Xrotation
        JOINT RightFoot
        {
          OFFSET -42.260784 4e-06 2e-06
          CHANNELS 3 Zrotation Yrotation Xrotation
          JOINT RightToeBase
          {
            OFFSET -14.222245 -2e-06 -1e-06
            CHANNELS 3 Zrotation Yrotation Xrotation
            JOINT RightToeEnd
            {
              OFFSET -6.660062 0.232574 -2e-06
              CHANNELS 3 Zrotation Yrotation Xrotation
            }
          }
        }
      }
    }
  }
}
MOTION
Frames: 4
Frame Time: 0.03333333333333333
0.0 0.0 0.0 0.0 -0.0 0.0 -0.201033 100.06424 0.075823 89.883026 5.57787 90.304321 -3.723993 0.096266 0.10708 -12.165789 -0.403061 -0.009415 19.029175 0.692218 -1.767064 32.516228 -0.424308 2.407378 -2.822134 -0.456783 0.761848 -34.586452 0.911672 0.353045 5.8e-05 -0.000778 0.001241 0.074093 0.004707 0.0671 0.010639 -0.055238 0.0539 0.02319 0.061812 0.087079 -140.607239 -61.753483 159.416473 28.429264 -44.916431 12.677677 25.546406 0.039005 0.061479 2.01554 -4.580457 4.190313 17.628082 -26.350164 52.446529 -19.440397 -14.367194 29.391048 -0.002769 -8.761671 0.011051 16.257097 -18.261995 6.095195 -0.59941 -1.788175 -3.889936 -4.791703 -11.038465 -2.928273 0.00803 -20.948179 -0.007499 -5.010473 -25.011587 -3.988205 -0.002419 0.005773 -0.008084 -10.602214 -5.673301 -3.563086 10.555088 -17.912542 -3.107748 0.010235 -13.822637 0.013122 -0.483706 -31.188946 -4.029661 -11.718348 -59.618603 7.609063 -13.946239 -7.136608 -2.881328 13.743791 -8.402408 -3.190955 0.354084 -34.187344 0.762113 -0.955021 -17.740288 2.634094 0.005737 0.00446 -0.000266 -17.301476 -20.063234 -4.188682 21.724564 -1.647963 3.852544 0.000809 -6.332436 -0.009575 -1.695294 -22.573011 -6.151652 -0.003328 0.00851 -0.019617 28.345358 -64.518532 170.805969 27.23789 -46.02676 13.461764 25.768995 -0.155725 -0.062692 3.9215 -1.222275 4.648549 22.150597 -20.368795 49.928757 -16.699924 -16.730055 28.459063 -0.017852 -12.670296 0.01331 16.157755 -17.726913 2.435915 -0.111642 -1.512958 -4.26694 -5.016511 -5.600261 -2.964553 0.008716 -10.998155 -0.008571 -6.088932 -15.864858 -3.815289 0.004253 0.000246 -0.010274 -10.263072 -5.657887 -4.34287 11.013419 -11.289749 -2.376786 -1.384542 -14.210391 -6.303898 -0.61473 -26.849485 -3.81425 -4.414473 -49.689899 -3.892576 -13.689839 -7.348637 -3.725783 18.128305 -14.038101 -3.251659 0.011142 -18.751352 0.00902 -0.427193 -8.446259 2.560731 -0.007205 -0.007519 -0.007038 -15.882572 -20.057497 -5.490404 30.387594 -7.212128 1.717273 0.018281 -8.163194 0.007022 -1.844245 -22.802284 -6.15156 0.001325 -0.005726 0.016609 -173.282776 -2.291727 -2.994766 8.32931 0.000106 0.211155 -78.731224 -0.329499 -2.457511 -4.948453 1.618093 2.165791 -0.993376 -0.001022 0.000598 7.006816 -2.006884 -1.571027 7.508752 -0.024208 0.033958 -78.316071 2.10434 -4.347561 -4.661889 0.626687 1.687627 -0.997915 -0.000279 0.000577 
0.0 0.0 0.0 0.0 -0.0 0.0 -0.181668 100.072266 0.046484 89.868713 5.571549 90.284294 -3.714228 0.092698 0.109834 -12.151908 -0.411189 -0.021259 19.040863 0.699184 -1.759386 32.586639 -0.434016 2.408377 -2.813982 -0.432484 0.762579 -34.73143 0.894828 0.387101 -0.001689 -0.001282 0.000362 0.077682 0.002802 0.063674 0.022791 -0.056467 0.051966 0.038756 0.062086 0.080703 -140.713577 -61.943493 159.497849 28.470778 -44.998241 12.700442 25.625458 0.0432 0.043165 1.986907 -4.573617 4.245162 17.65687 -26.318798 52.46106 -19.445316 -14.385294 29.390669 0.007423 -8.780939 0.008318 16.306396 -18.336151 6.063394 -0.62585 -1.805309 -3.877573 -4.822876 -11.054507 -2.948089 -0.013867 -20.991005 -0.009107 -5.055562 -25.034819 -4.051383 0.002303 -0.0 0.002619 -10.655733 -5.700975 -3.547874 10.565903 -17.910248 -3.114373 -0.020015 -13.811155 -0.008952 -0.514889 -31.162329 -4.031816 -11.539817 -59.550823 7.413719 -14.006598 -7.168948 -2.873882 13.774 -8.391088 -3.208203 0.309934 -34.216389 0.755172 -0.974469 -17.729574 2.637161 -0.003698 0.004774 0.005215 -17.385889 -20.115755 -4.192792 21.776632 -1.627657 3.893059 -0.003083 -6.330056 -0.018778 -1.701529 -22.609425 -6.202683 -2.2e-05 0.000637 -0.002257 28.506842 -64.696762 170.771271 27.253998 -46.186363 13.429236 25.815491 -0.141747 -0.032773 3.916623 -1.24091 4.637529 22.216665 -20.320492 49.917152 -16.690681 -16.74122 28.432772 0.01401 -12.691613 -0.000267 16.229582 -17.779968 2.399451 -0.096042 -1.513693 -4.263073 -5.058205 -5.622704 -2.940456 -0.011687 -11.018537 -0.007798 -6.124061 -15.918447 -3.825005 0.006646 0.00172 -0.01155 -10.29257 -5.688377 -4.330375 11.020545 -11.297511 -2.35915 -1.416662 -14.237507 -6.326636 -0.653123 -26.928083 -3.828712 -4.362379 -49.81258 -4.020538 -13.732631 -7.38543 -3.710973 18.143778 -14.036657 -3.229542 -0.015854 -18.783216 -0.013766 -0.446173 -8.441434 2.529679 0.004687 0.001695 0.005939 -15.965818 -20.115313 -5.468096 30.446976 -7.175549 1.773682 -0.009268 -8.141087 -0.006857 -1.876343 -22.84148 -6.184381 -0.000155 -0.010239 0.000792 -173.288589 -2.298824 -2.989753 8.271315 0.003236 0.217074 -78.667969 -0.354877 -2.450784 -4.955097 1.618873 2.165332 -1.000375 0.000393 -0.000184 7.024117 -1.988116 -1.565259 7.386058 -0.019705 0.028179 -78.110779 2.104744 -4.348683 -4.698936 0.629191 1.684826 -0.994309 -0.000281 0.000329 
0.0 0.0 0.0 0.0 -0.0 0.0 -0.176644 100.085213 0.032242 89.856277 5.566883 90.250443 -3.691494 0.090298 0.111541 -12.141011 -0.413022 -0.021076 19.034866 0.702665 -1.757761 32.58326 -0.449404 2.424244 -2.81447 -0.418794 0.760644 -34.761284 0.886489 0.423203 3.4e-05 0.000539 0.001347 0.075917 0.006491 0.06553 0.024504 -0.055879 0.052838 0.033486 0.067171 0.083953 -140.750366 -62.041813 159.510712 28.467623 -44.996964 12.623654 25.629242 0.00738 0.031164 1.97088 -4.600093 4.29852 17.630053 -26.350733 52.515999 -19.456541 -14.395209 29.440989 0.010284 -8.780445 -0.000497 16.313257 -18.360943 6.10786 -0.614639 -1.795312 -3.909935 -4.827549 -11.055952 -2.915513 -0.019585 -20.985605 -0.020717 -5.068644 -25.051548 -4.017551 -0.003455 0.009214 -0.002897 -10.644717 -5.697964 -3.58 10.552958 -17.915022 -3.10166 -0.009465 -13.820402 0.000847 -0.5185 -31.197474 -4.030566 -11.549566 -59.656876 7.421947 -14.003511 -7.172652 -2.88579 13.767374 -8.38614 -3.193358 0.300352 -34.215538 0.757009 -1.006239 -17.72678 2.623343 0.006744 -0.008712 0.006092 -17.387943 -20.124382 -4.202328 21.785896 -1.617446 3.873956 -0.007123 -6.339994 -0.004703 -1.744223 -22.571075 -6.170703 0.005843 0.003736 0.0 28.55689 -64.723289 170.714111 27.222124 -46.227322 13.365915 25.760857 -0.167304 -0.051778 3.916109 -1.268757 4.642423 22.171871 -20.341322 49.940918 -16.702785 -16.740606 28.454481 0.006949 -12.690872 0.016158 16.213017 -17.765484 2.406188 -0.109869 -1.51489 -4.250243 -5.033577 -5.613014 -2.97087 -0.009636 -11.012916 -0.001994 -6.109712 -15.87992 -3.84435 0.008445 -0.007848 -0.001553 -10.28003 -5.677863 -4.323839 11.024198 -11.313236 -2.385169 -1.397077 -14.243849 -6.316551 -0.612599 -26.944122 -3.844511 -4.450179 -49.860344 -3.916915 -13.712776 -7.364203 -3.697686 18.135799 -14.040517 -3.247762 0.001393 -18.783537 -0.020226 -0.439684 -8.437139 2.558062 -0.004665 -0.001671 -0.005918 -15.928241 -20.101105 -5.475667 30.389431 -7.17999 1.75516 -0.001313 -8.166972 -0.012273 -1.855757 -22.840469 -6.165302 -0.002998 0.000987 0.001079 -173.22168 -2.307036 -2.992174 8.086535 0.007559 0.221383 -78.586876 -0.381834 -2.46341 -4.980331 1.61771 2.162256 -0.993164 -0.000423 0.000478 7.08525 -1.982682 -1.557598 7.192059 -0.011919 0.021123 -78.065971 2.098742 -4.357274 -4.717988 0.629228 1.685633 -0.997672 -2.4e-05 -0.000252 
0.0 0.0 0.0 0.0 -0.0 0.0 -0.166594 100.087059 -0.001102 89.849251 5.558732 90.224548 -3.665246 0.086126 0.111932 -12.117951 -0.410267 -0.021898 19.003819 0.702813 -1.759035 32.53841 -0.456737 2.434285 -2.795617 -0.419697 0.761789 -34.783218 0.891672 0.452225 -3e-05 0.001411 0.000478 0.075924 0.005509 0.065533 0.02973 -0.054887 0.053062 0.038774 0.061741 0.08102 -140.781876 -62.110073 159.526901 28.522287 -45.021679 12.618222 25.63879 -0.017605 0.052312 1.977683 -4.6111 4.24601 17.652691 -26.365002 52.51757 -19.460094 -14.413349 29.41481 0.009922 -8.78926 -0.004041 16.348377 -18.380594 6.089831 -0.607819 -1.784967 -3.892163 -4.820103 -11.066397 -2.92427 -0.002793 -21.01955 -0.01247 -5.050035 -25.056549 -4.023693 -0.006587 -0.013324 0.004285 -10.652699 -5.695173 -3.573403 10.571144 -17.932444 -3.094647 -0.008659 -13.827811 -0.012702 -0.523598 -31.211777 -4.024529 -11.571818 -59.659557 7.451749 -13.998748 -7.158342 -2.881114 13.771598 -8.397301 -3.212584 0.320643 -34.256611 0.770329 -0.995864 -17.735128 2.646552 0.012608 0.00134 -0.011574 -17.379009 -20.128239 -4.200874 21.770941 -1.623494 3.881214 -0.017592 -6.341802 0.009994 -1.701172 -22.610922 -6.212862 -0.004345 -0.009979 0.007394 28.587246 -64.796349 170.707596 27.180826 -46.314175 13.404744 25.734818 -0.170972 -0.046007 3.941543 -1.284638 4.632912 22.217091 -20.372721 50.038162 -16.721148 -16.757507 28.511538 0.012121 -12.690026 -0.00971 16.258831 -17.793102 2.403492 -0.108128 -1.513368 -4.28959 -5.048729 -5.629516 -2.954294 -0.007124 -11.031458 -0.008729 -6.134802 -15.908281 -3.831524 0.001887 -0.005447 -0.0 -10.29366 -5.688258 -4.357377 11.033003 -11.308746 -2.356526 -1.386787 -14.244508 -6.333208 -0.634294 -26.894325 -3.827392 -4.41206 -49.77364 -3.919787 -13.734812 -7.384597 -3.729332 18.151915 -14.051346 -3.23519 0.005812 -18.798643 -0.023917 -0.429521 -8.460674 2.560299 0.005227 -0.004593 -0.00387 -15.947906 -20.136335 -5.508903 30.447197 -7.197607 1.752238 -0.018656 -8.184539 0.006767 -1.849507 -22.896399 -6.189799 0.001019 0.001083 -0.001042 -173.274673 -2.303704 -2.984711 8.127314 0.008406 0.219168 -78.574966 -0.399464 -2.455878 -4.968405 1.621887 2.167223 -0.996641 -0.000784 -0.000365 7.033392 -1.980762 -1.551351 7.20931 -0.009499 0.023308 -78.057312 2.081235 -4.366136 -4.724846 0.63025 1.684485 -0.997606 0.000117 -0.000125 
